<?xml version="1.0" encoding="utf-8"?>
<svg version="1.1" xmlns="http://www.w3.org/2000/svg" x="0px" y="0px"
	 viewBox="50 90 380 250" xml:space="preserve">
<g id="BIKE">
	<g>
		<polygon style="fill:#ffa31a;" points="123.91,285.197 79.45,289.219 134.962,293.37"/>
		<polygon style="fill:#ffa31a;" points="115.293,278.59 88.778,274.533 106.594,271.383"/>
		<g>
			<path style="fill:#ffa31a;" d="M414.435,251.963c-1.276-18.023-12.942-32.826-28.727-38.981c0.075-0.037,0.115-0.057,0.115-0.057
				s-4.192-2.891-11.036-4.364c1.018,0.509,2.078,1.226,3.146,2.175c0.501,0.445,1.003,0.926,1.504,1.487l-1.773,0.903l-6.786,3.457
				l-11.748,5.984l6.455-5.999l4.576-4.253l1.412-1.313c0,0-0.297-0.477-0.908-1.079c-0.535-0.527-1.325-1.139-2.407-1.643
				c-0.338-0.157-0.706-0.297-1.102-0.424c-0.135-0.043-0.254-0.096-0.397-0.135c-0.008,0-0.016,0-0.024,0
				c3.729-2.743,10.23-8.57,9.381-15.373c-0.299-2.401-1.741-10.55-1.741-10.55s5.948,6.864,9.109,11.62
				c1.516,2.281,1.982,3.922,1.919,5.182c0.152-0.276,0.267-0.555,0.33-0.84c1.13-4.935-4.145-14.047-9.389-21.81
				c-2.728-4.019-29.404-29.299-34.155-32.371c-4.783-3.07-6.633-4.225-8.54-2.546c-1.909,1.646-7.874,6.859-7.874,6.859
				s8.009-2.771,9.812-2.288c1.832,0.449,30.79,24.911,31.174,25.334c-0.982-0.702-25.57-14.202-29.338-13.839l11.1,8.731
				c3.469,3.13,7.692,6.708,7.756,7.603c0.084,1.184-0.644,10.188-3.107,11.745c-0.247,0.156-0.573,0.311-0.955,0.464
				c1.345-1.66,1.998-3.439,1.824-4.9c-0.296-2.482-1.704-7.547-2.805-8.046c-0.499-0.226-2.312-1.173-4.147-2.141
				c-0.909-0.48-1.819-0.962-2.581-1.367c-1.094-0.582-1.879-1.001-1.879-1.001l-2.995,0.545l-8.82,6.67
				c-0.144-0.016-0.345-0.028-0.573-0.038c-1.545-3.258-3.913-7.806-5.575-8.92c-2.127-1.426-27.777-7.301-41.125-9.236
				c0.251,5.648,0.353,11.647,1.179,14.569c1.734-0.039,5.593,0.198,11.065,3.19c1.489,0.812,3.471,1.628,5.578,2.374
				c1.966,0.695,4.035,1.326,5.922,1.838c2.383,0.646,4.452,1.095,5.636,1.231c0.09,0.01,0.193,0.025,0.272,0.032l0,0l0,0
				c-0.079-0.007-0.183-0.022-0.272-0.032c1.77-0.159,2.906-0.312,2.906-0.312v0c0,0,0,0,0,0c0,0-0.128,0.465-0.324,1.175v0l0,0
				c-0.389,1.41-1.052,3.807-1.548,5.594c0.036-0.152,0.063-0.319,0.081-0.501c-0.026,0.169-0.051,0.336-0.084,0.513
				c-0.004,0.022-0.006,0.041-0.01,0.063c-0.002,0-0.005-0.001-0.007-0.001c-3.272-0.474-10.963-2.016-14.151-2.646
				c-0.121-0.023-0.254-0.051-0.392-0.081c-3.642-0.801-12.98-4.046-12.98-4.046s11.658,0.945,14.218,1.103
				c1.346,0.087,2.606,0.027,3.592-0.067c1.235-0.117,2.041-0.288,2.041-0.288s-0.153-0.06-0.411-0.16
				c-0.164-0.064-0.382-0.148-0.63-0.243c-2.277-0.874-7.716-2.914-9.963-3.345c-2.871-0.551-10.202-4.354-10.537-5.384
				c0-0.001-0.003-0.004-0.003-0.005c-1.733,0.079-4.332,0.276-7.089,4.096c-2.403,3.25-3.697,8.033-3.589,10.066
				c-1.454-0.658-3.213-1.326-4.56-1.442c-1.189-1.48-2.177-2.671-2.517-3.219c-1.075-1.735-3.91-8.185-3.91-8.185
				s-2.044-4.084-3.044-6.234c-0.436-0.938-0.882-1.859-1.252-2.611c-0.477-0.971-0.823-1.653-0.823-1.653l2.075-4.376
				c-3.187-3.637-10.911-16.176-9.254-22.892c0.924-3.744,1.332-5.398,1.513-6.131c-0.066-0.073-0.131-0.144-0.196-0.215
				c-1.485,1.637-7.476,8.529-10.244,16.062c-3.672,9.992-8.089,11.541-12.055,14.163c0,0,9.814,1.444,15.118,2.184
				c0,0-14.028,1.285-20.907,2.539c-6.879,1.254-10.119,2.93-10.119,2.93l11.251,2.583l-15.121,2.338c0,0-0.86,2.603,6.449,3.893
				c4.953,0.874,20.366,3.055,30.928,4.864c5.023,0.86,8.954,1.637,10.132,2.148c3.655,1.586,5.722,2.231,5.548,5.026
				c0,0-7.534,1.636-12.948,3.185c-0.329,0.094-0.65,0.188-0.961,0.281c-1.201,0.359-2.255,0.708-3.033,1.024
				c0,0,0.857-1.506,1.624-3.065c0.196-0.398,0.384-0.797,0.552-1.179c0.316-0.715,0.559-1.36,0.618-1.77
				c0.115-0.794-0.51-1.469-1.279-1.861c-0.669-0.341-1.446-0.469-1.945-0.269c-0.73,0.292-2.262,1.275-4.041,2.08
				c-0.839,0.38-1.728,0.723-2.623,0.93c-2.795,0.645-25.576-0.541-30.311-0.88c-5.868-0.42-9.796-1.677-12.378-2.995
				c-0.697-0.356-2.045-2.094-1.988-4.457c0.016-0.654,0.134-1.353,0.409-2.087c0.655-1.311,1.448-2.294,2.349-2.195
				c2.58,0.284,9.459,0,9.459,0s-3.869-3.723-4.944-5.443c-1.075-1.72,1.505-3.225,6.019-7.751
				c4.514-4.527,25.636-22.312,25.636-22.312s-4.001,2.005-9.736,5.354c-5.691,3.323-13.089,7.97-19.984,13.299
				c-4.857,3.754-7.309,9.69-8.814,10.299c-1.505,0.609-3.44,3.26-3.655,6.554c-0.057,0.878,0.04,1.871,0.211,2.858
				c-3.411-3.401-5.349-12.817-10.962-14.677c-5.87-1.945-36.405-0.35-46.614,1.908c8.318-0.09,24.414,1.181,29.39,1.571
				c6.134,0.481,15.304,0.747,15.304,0.747l-30.653,2.17l22.803,3.266l-20.638,1.461l72.873,32.079c0,0-83.208-33.507-87.028-35.763
				c-2.331-1.377-4.181-3.013-5.272-4.083c-0.757,1.663,1.702,5.324,9.329,10.195c5.715,3.65,21.694,11.829,37.929,19.907
				c0.285,2.503,0.356,4.992,0.356,4.992v5.654l3.563,0.657l10.059-4.397c8.431,4.139,16.079,7.853,21.347,10.4l-3.277,13.097
				l-1.894,0.93c-8.873-12.241-23.669-19.766-39.86-18.619c-24.931,1.765-43.71,23.406-41.945,48.336
				c1.374,19.415,14.805,35.096,32.454,40.252l-68.447,2.904h276.076c2.074,0.141,4.179,0.151,6.312,0
				C397.42,298.534,416.2,276.893,414.435,251.963z M181.428,205.008l-1.162-7.663c2.581,1.281,5.155,2.553,7.683,3.798
				L181.428,205.008z M360.859,234.915l-2.814,1.208l-0.895-1.953l4.947-3.123l1.973,4.331l1.017,2.231l2.097,4.603l1.445,3.172
				l0.874,1.917l3.771,8.276l0.242,0.532l-8.073,3.47l-0.039-0.552l-0.334-4.712l1.064,2.568l4.072-2.697l-3.416-7.042l-0.614-1.265
				l-1.273-2.625l-2.353-4.852l-0.943-1.944L360.859,234.915z M377.984,256.803c-0.314-4.441-3.37-8.025-7.394-9.24l-0.964-2.199
				c4.955,0.162,9.085,4.048,9.443,9.101c0.151,2.127-0.397,4.138-1.437,5.824C377.935,259.184,378.07,258.013,377.984,256.803z
				 M222.014,234.158c0.097-0.129,0.193-0.242,0.258-0.435c0.336,0.016,0.784,0.083,1.306,0.187
				c4.204,0.835,13.521,4.184,13.264,4.772c-0.322,0.692-3.365,3.542-3.365,3.542l-5.361,1.127l6.176,10.299l3.038,1.962
				l4.901,3.165c0,0-3.072-0.781-5.61-1.812c-0.808-0.328-1.563-0.681-2.146-1.042c-2.351-1.497-3.075-2.495-3.799-3.091
				c-0.534-0.428-7.727-6.097-11.664-9.111c-1.402-1.073-2.394-1.813-2.521-1.855C215.139,239.258,220.404,236.251,222.014,234.158z
				 M318.267,179.484l3.758-3.312l0.618-0.544c0,0,0.218,0.016,0.579,0.05c0.061,0.006,0.134,0.013,0.203,0.02
				c1.423,0.14,4.446,0.504,6.058,1.181c0.347,0.146,0.635,0.304,0.819,0.48c0.117,0.112,0.218,0.251,0.312,0.402
				c0.249,0.4,0.421,0.915,0.537,1.467c0.333,1.589,0.215,3.441,0.215,3.441c-0.588-0.814-1.366-1.578-2.129-2.231
				c-1.416-1.211-2.78-2.032-2.78-2.032s0.001,0.001,1.904,2.586c0.003,0.004,0.005,0.007,0.008,0.011
				c1.912,2.596,1.654,4.857,1.654,4.857s-1.008-1.176-2.48-2.894c-0.242-0.282-0.562-0.575-0.934-0.867
				C324.715,180.617,321.328,179.183,318.267,179.484C318.267,179.484,318.267,179.484,318.267,179.484z M331.43,201.806
				c-0.871,0.676-1.499,1.179-1.739,1.404c-1.442,1.352-49.329,23.075-50.872,24.018s-6.622,10.26-7.764,12.633
				c-1.142,2.373,0.307,4.339,0.307,4.339c1.543,2.995,18.385,15.378,18.385,15.378s-26.618-11.865-27.52-12.842
				c-0.902-0.978,1.84-6.38,4.049-10.495c2.209-4.115,6.967-13.41,8.325-14.831c1.358-1.421,46.019-17.974,48.67-18.787
				c0.538-0.165,1.819-0.763,3.506-1.604c0.702-0.35,1.471-0.74,2.293-1.163c6.93-3.563,17.309-9.245,17.309-9.245
				s-8.473,6.251-13.383,9.992C332.417,201.045,331.89,201.449,331.43,201.806z M228.423,266.742h3.077h8.877l10.76,7.448
				l-19.841-3.715l-3.362-3.733H228.423z M301.463,270.475l9.567,8.114h-58.619L301.463,270.475z M308.68,253.65
				c0,0-12.125-8.145-13.961-9.19c-1.835-1.044-14.993-4.419-14.993-4.419s8.013-0.176,10.544-0.355
				c2.532-0.179,11.491-0.813,12.423-1.467c0.932-0.653,21.344-13.124,21.344-13.124l-20.195,21.068L308.68,253.65z
				 M313.755,187.584c-0.019,0.068-0.039,0.14-0.057,0.204c-0.001,0-0.001,0-0.002,0
				C313.715,187.723,313.733,187.66,313.755,187.584z M276.879,187.334c2.008,0.315,12.012-1.142,17.369-1.142
				c0.573,0,1.139,0.003,1.698,0.008c4.815,0.039,8.897,0.229,8.897,0.229s-4.175,0.512-9.728,1.497
				c-1.41,0.264-2.848,0.67-4.222,1.13c-0.955,0.32-1.87,0.664-2.717,1.016c-0.112,0.047-0.237,0.092-0.347,0.139
				c-2.166-0.315-3.978-0.748-5.159-1.182c-0.054-0.019-0.116-0.038-0.17-0.057c-3.045-0.741-5.318-1.513-5.676-1.637H276.879z
				 M242.316,194.827c1.048-0.322,4.182-0.882,7.738-0.833c0.474,0.007,0.955,0.027,1.44,0.058c2.249,0.141,4.573,0.554,6.584,1.451
				c1.24,0.563,2.592,1.256,3.977,2.029c-2.948-0.748-8.831-1.72-9.859-1.888c-0.1-0.016-0.171-0.028-0.171-0.028
				s0.092,0.062,0.225,0.151c0.897,0.602,4.509,3.019,7.083,4.665c1.026,0.657,1.887,1.19,2.335,1.431
				c0.473,0.258,0.716,0.869,0.825,1.62c0.052,0.356,0.073,0.741,0.072,1.14c-0.002,0.563-0.045,1.143-0.108,1.686
				c-0.015,0.131-0.032,0.26-0.049,0.386c-0.152,1.124-0.357,1.996-0.357,1.996l-2.333-1.608l-0.198-0.137l-0.548-0.378
				l-2.819-1.943l-1.96-1.351l-0.021-0.014l-5.416,7.617l7.148,6.794c-0.676-0.129-11.463-2.415-14.441-2.962
				c-3.059-0.58-4.122-0.016-4.122-0.016s4.851,5.773,5.737,6.53c0.901,0.757-0.837,3.011-0.837,3.011l-3.241,9.811l0,0
				c0,0-5.182-2.301-8.354-3.267c-1.069-0.335-2.855-0.842-4.353-1.022c0-0.001,0.001-0.001,0.001-0.002
				c1.265-2.595,2.531-4.627,3.36-6.863c0.194-0.524,0.372-1.056,0.512-1.614c1.448-5.781,3.354-10.279,5.143-13.636l-2.732,12.568
				c0,0,8.581-15.143,10.923-16.704c2.335-1.557,6.707-3.546,6.733-3.558c0,0,0.002-0.001,0.002-0.001
				c-0.462-0.207-0.982-0.343-1.531-0.437c-2.973-0.507-6.876,0.429-8.078,0.437c-0.324-1.069-0.424-1.922-0.363-2.622
				c0.063-0.723,0.311-1.271,0.709-1.683C241.319,195.281,241.766,195.01,242.316,194.827z M213.947,230.558l4.935-10.348v11.433
				l-5.137,3.485l-1.167,0.392l-2.291,0.77l-3.522,1.183l-7.397,2.485l-14.007,4.705l-14.773,4.963l13.94-6.13l13.506-5.939
				l7.003-3.08l3.536-1.555l2.21-0.972L213.947,230.558z M128.648,258.318c-0.046-0.451-0.131-0.889-0.163-1.345
				c-1.672-23.611,16.114-44.106,39.725-45.778c15.187-1.075,29.074,5.908,37.5,17.306l-3.711,1.822
				c-8.246-9.957-21.005-15.931-34.884-14.948C144.723,216.961,127.793,236.051,128.648,258.318z M139.898,256.165
				c-1.225-17.307,11.812-32.331,29.12-33.557c10.386-0.735,19.944,3.669,26.197,11.046l-13.825,6.789
				c-3.144-2.366-7.114-3.664-11.348-3.364c-9.316,0.659-16.334,8.746-15.674,18.062c0.66,9.316,8.746,16.334,18.062,15.674
				c5.73-0.406,10.581-3.626,13.321-8.209l15.23,1.476c-3.956,11.594-14.539,20.284-27.527,21.203
				C156.147,286.51,141.123,273.473,139.898,256.165z M187.557,296.164c10.398-4.016,18.855-11.731,23.882-21.435
				c-1.042,3.484-5.221,11.98-5.221,11.98l115.505-1.579c0,0,2.899-4.45,2.315-7.684c-0.708-3.914-3.831-10.711-3.611-16.852
				c0.318-8.872,2.399-14.447,5.475-19.154l0.267,0.006c-1.689,5.308-2.433,11.013-2.016,16.908
				c0.897,12.665,6.929,23.735,15.91,31.338L187.557,296.164z M371.512,286.497c-17.308,1.225-32.331-11.812-33.557-29.12
				c-0.447-6.316,1.012-12.324,3.878-17.473l7.399-2.709l6.291,6.281c-2.948,3.474-4.599,8.054-4.251,12.958
				c0.705,9.953,9.344,17.45,19.297,16.746c9.953-0.705,17.45-9.344,16.746-19.297c-0.691-9.758-9.013-17.136-18.719-16.758
				c-0.785-3.91-1.86-9.491-1.99-11.323c-0.053-0.752,0.062-1.395,0.318-1.968c0.051-0.004,0.1-0.011,0.151-0.014
				c17.308-1.225,32.331,11.812,33.557,29.12C401.857,270.248,388.82,285.271,371.512,286.497z M395.28,289.219
				c9.485-8.259,15.146-20.681,14.189-34.193c-1.333-18.832-15.047-33.824-32.62-37.608c2.015-1.014,4.189-2.103,5.894-2.956
				c16.003,5.296,28.037,19.813,29.302,37.67C413.103,267.075,406.354,280.754,395.28,289.219z"/>
			<path style="fill:#ffa31a;" d="M286.973,121.745c0,0,0.91-2.266,0.833-2.996c-0.077-0.731-1.769-1.018-2.331-1.099
				c-0.561-0.081-0.996,0.513-0.996,0.513c0.779,0.273,1.381,0.977,1.608,1.54C286.315,120.266,286.973,121.745,286.973,121.745z"/>
			<path style="fill:#ffa31a;" d="M262.565,128.835c1.996,0.959,3.893,1.913,5.116,2.627c0.578,0.337,1.004,0.62,1.215,0.823
				c0.012,0.011,0.028,0.024,0.039,0.035c0.04,0.041,0.082,0.094,0.126,0.154c0.066,0.089,0.137,0.202,0.212,0.33
				c1.058,1.818,2.913,7.312,4.067,10.885c0.576,1.784,0.975,3.081,1.013,3.204c0.002,0.006,0.006,0.019,0.006,0.019
				s-0.003-0.004-0.003-0.004c-0.028-0.042-2.775-4.15-4.95-7.485c-0.001-0.002-0.003-0.004-0.004-0.006
				c-0.842-1.291-2.49-2.705-4.198-3.959c-2.721-1.997-5.593-3.582-5.609-3.591c0.676,1.46,1.618,3.691,2.44,6.349
				c1.479,4.783,2.203,12.662,0.748,15.663c-1.455,3-1.85,5.641-1.741,7.38c0,0,0.731-1.53,2.012-3.347
				c8.006-6.824,11.488-4.655,12.754-4.173c-2.418,0.157-5.033,0.759-6.565,2.442c-0.949,1.042-1.767,2.374-2.46,3.751
				c-0.993,1.971-1.723,4.032-2.177,5.49c1.586-1.694,3.933-3.961,5.684-4.605c0,0,0.877,5.427,0.493,7.604
				c-0.343,1.943,3.204,7.632,3.975,8.839c0.717-1.164,1.347-2.223,1.651-2.811c2.606-5.035,4.049-13.253,4.665-17.569
				c0.227-1.593,0.342-2.652,0.36-2.825c0.212-1.127,0.54-2.231,1.224-3.501c0.095-0.176,0.217-0.376,0.353-0.587
				c1.331-2.071,4.452-5.666,5.803-7.195c4.052,2.42,9.729,5.069,11.939,5.405c3.119,0.475,5.442-0.87,7.473-2.161
				c2.03-1.29,3.191-3.175,3.2-3.934c0.009-0.759-0.467-2.488-0.467-2.488s1.844-4.439,2.634-11.932l-5.802-3.229l5.99,1.147
				c0,0,1.079,0.1,1.015-1.857c-0.065-1.957-0.724-5.47-3.158-9.558c-2.434-4.088-14.117-11.439-24.644-7.796
				c-2.36,0.817-4.279,1.811-5.878,2.902c4.101-1.299,11.327-3.078,16.089-1.361c6.969,2.513,8.874,6.551,9.913,9.031
				c0,0-5.619-4.221-12.434-4.14c0,0,7.375,4.557,8.82,8.942c0,0-8.166-1.286-9.699-1.406c-1.533-0.12-2.231,1.235-2.37,1.942
				c-0.139,0.707,2.963,10.33,4.728,12.311c1.766,1.982,9.062,6.055,9.062,6.055s-9.818-1.558-15.709-4.67
				c-5.891-3.112-13.55-12.015-14.249-12.837c-0.697-0.82-0.165-3.036-0.108-7.075c-0.936,1.925-1.412,3.776-1.717,5.275
				c-0.348,1.708-0.108,4.263,1.237,6.586c0.241,0.417,0.649,0.998,1.163,1.679c-1.341-0.894-2.316-1.981-3.18-3.159
				c-3.442-4.695-2.461-5.586-5.724-4.941c-2.434,0.481-7.443,1.703-11.229,4.156c0.071,0.032,0.142,0.064,0.217,0.098
				C257.568,126.496,260.133,127.666,262.565,128.835z"/>
		</g>
	</g>
</g>
</svg>
