<svg version="1.1" id="Layer_1" xmlns="http://www.w3.org/2000/svg" xmlns:xlink="http://www.w3.org/1999/xlink" x="0px" y="0px"
	 width="100%" viewBox="0 0 688 656" enable-background="new 0 0 688 656" xml:space="preserve">
<path fill="#000000" opacity="1.000000" stroke="none" 
	d="
M212.467468,43.246201 
	C218.551163,40.440174 224.196106,37.507092 230.117386,35.323395 
	C237.901932,32.452549 246.015854,30.468887 253.779190,27.548300 
	C260.740906,24.929274 268.884644,26.355766 275.060486,21.130898 
	C275.700806,20.589165 276.973938,20.709705 277.958893,20.674023 
	C289.949371,20.239662 301.683502,17.462378 313.541809,16.036407 
	C332.517853,13.754525 351.340149,14.923386 370.166748,15.141385 
	C376.307190,15.212487 382.966736,15.661053 389.187225,16.846567 
	C397.197723,18.373207 405.795105,18.262434 413.159485,21.006783 
	C426.048798,25.810017 439.526520,28.346592 452.490631,32.817070 
	C461.199738,35.820271 468.980560,40.357414 477.395752,43.629917 
	C483.019653,45.816917 488.759247,47.828022 493.986908,50.729900 
	C502.301758,55.345493 510.322937,60.525204 518.224670,65.829361 
	C520.691101,67.484955 523.561157,68.043182 525.927917,70.099960 
	C532.462769,75.778900 539.333923,81.074677 546.880310,85.450539 
	C550.179749,87.363792 551.465088,91.385674 554.606750,93.683624 
	C562.962646,99.795563 571.445984,106.109558 577.453247,114.468857 
	C583.879150,123.410545 592.703491,130.116089 598.712646,139.316040 
	C605.669556,149.966949 613.938354,159.770767 619.810852,171.112427 
	C623.971375,179.147598 629.618164,186.285080 632.906860,194.881897 
	C638.395813,209.230377 645.988525,222.702225 649.592285,237.876022 
	C651.305908,245.091141 652.837708,252.530869 655.574158,259.392639 
	C658.574768,266.916840 658.771301,274.794312 660.662476,282.357513 
	C661.987488,287.656616 661.325134,292.887695 662.385010,297.950165 
	C666.420959,317.228546 663.647400,336.665802 664.043640,356.009033 
	C664.243042,365.744598 662.630981,375.536133 660.563904,385.189392 
	C659.580688,389.780823 659.225525,394.612976 658.694153,399.266205 
	C658.116333,404.327484 655.221802,408.210510 654.334778,412.975616 
	C653.091858,419.653381 651.075439,426.195953 649.217407,432.747467 
	C647.929688,437.288300 646.719238,441.907898 644.834473,446.212158 
	C638.846191,459.887512 633.086243,473.708618 626.161011,486.908325 
	C622.749023,493.411560 618.153809,499.445526 614.652832,505.982971 
	C609.686707,515.256226 602.678162,522.941711 596.317505,531.138977 
	C589.624573,539.764465 582.984070,548.480835 575.216431,556.154297 
	C568.461914,562.826843 562.708801,570.688171 553.761536,574.985046 
	C552.026978,575.818115 550.957642,578.129333 549.701599,579.846497 
	C547.089294,583.417725 543.092346,585.201965 539.689514,587.747803 
	C528.397156,596.196411 517.617432,605.329834 504.214417,610.684509 
	C500.724548,612.078796 498.257263,616.123657 494.222534,617.397156 
	C485.796143,620.056946 478.060242,624.499695 470.089722,628.085022 
	C462.545685,631.478638 454.883057,634.499573 447.157288,637.322937 
	C441.220001,639.492676 434.949921,640.764954 428.805908,642.351501 
	C424.607422,643.435730 420.400269,644.018005 416.527802,646.563477 
	C413.338684,648.659851 408.951385,647.923157 405.107727,648.942932 
	C400.490753,650.168091 395.451294,650.493469 390.591522,651.188721 
	C368.695892,654.321350 346.601685,653.010681 324.580963,653.510498 
	C315.412109,653.718689 306.617218,651.347107 297.523346,650.923279 
	C289.872131,650.566650 281.639008,649.341858 274.516693,646.832764 
	C266.288513,643.934143 257.814758,642.003784 249.565414,639.308044 
	C242.903015,637.130920 236.202362,635.114380 229.566025,632.787231 
	C221.377487,629.915649 213.924316,625.583740 205.958786,622.356567 
	C194.056793,617.534607 183.952209,609.545288 172.572876,603.869507 
	C166.782394,600.981323 162.290085,596.577271 157.145660,592.996460 
	C152.580704,589.818970 148.568665,585.798279 143.562225,583.292725 
	C139.098373,581.058838 137.579758,575.994507 133.224854,573.466919 
	C123.967422,568.093872 116.692322,560.068970 110.183372,551.921814 
	C103.724213,543.836914 95.636421,537.111023 90.187248,528.326660 
	C84.116501,518.540283 76.081467,510.086853 71.390770,499.327759 
	C69.213211,494.333038 64.982368,490.271118 62.397202,485.406464 
	C59.487038,479.930267 57.895271,473.827789 55.009022,468.267670 
	C51.398426,461.312103 47.822952,454.288574 44.962536,447.007477 
	C42.150318,439.849060 40.505043,432.239960 37.881874,424.997345 
	C35.234531,417.688019 35.394119,409.670227 31.410074,402.623535 
	C29.770008,399.722748 29.511379,395.467773 29.371046,392.148041 
	C29.055506,384.683655 27.525774,377.369781 26.560345,370.103088 
	C24.028158,351.043457 24.579512,331.973755 25.253202,312.990234 
	C25.577446,303.853577 26.327574,294.427094 28.275312,285.199066 
	C29.368782,280.018341 31.816534,274.768890 30.828571,269.224426 
	C30.058765,264.904236 33.649044,262.190002 34.404572,258.255310 
	C36.179577,249.011383 39.002991,239.923981 42.002655,230.974503 
	C44.310745,224.088318 47.418282,217.432434 50.269695,210.763794 
	C54.012043,202.011505 58.378632,193.533630 62.036034,184.743500 
	C65.878418,175.508804 72.477531,167.841248 77.334656,159.177582 
	C80.564682,153.416199 84.689194,148.414108 89.089348,143.594940 
	C91.321877,141.149796 91.920372,137.903229 94.096161,135.259796 
	C101.856537,125.831467 110.885345,117.700363 119.220779,108.892258 
	C125.680916,102.065788 132.351089,95.369621 139.220139,89.085144 
	C143.606613,85.071968 147.812286,80.166527 154.084473,78.027550 
	C157.824814,76.751991 159.555878,72.185051 163.322433,70.153061 
	C170.618195,66.217155 177.833160,62.070732 184.735245,57.489693 
	C188.567459,54.946175 192.750839,53.151192 196.593109,50.722172 
	C201.483261,47.630672 207.151886,46.269321 212.467468,43.246201 
M394.229675,24.383661 
	C390.374817,25.181845 387.308105,21.874510 384.220917,21.761257 
	C376.113983,21.463860 368.164856,20.147135 360.136749,19.535887 
	C351.522003,18.879971 342.818726,19.370569 334.154144,19.393711 
	C330.823853,19.402605 326.985626,18.446560 324.259277,19.759052 
	C316.192566,23.642517 307.401276,20.176849 298.894318,23.823101 
	C291.685028,26.913151 282.461243,25.863420 274.569244,28.546852 
	C270.090637,30.069662 265.266235,29.425798 261.119476,31.118885 
	C251.573776,35.016315 241.254456,36.464516 231.952744,41.211494 
	C224.573273,44.977486 216.782089,48.165024 208.859253,50.576111 
	C200.311676,53.177326 194.477982,60.085472 186.416046,63.321941 
	C184.060410,64.267609 181.630249,65.110718 179.440414,66.809662 
	C174.370605,70.743011 168.561966,73.737610 163.573425,77.758606 
	C157.930908,82.306732 150.620621,85.088074 146.126175,90.347115 
	C138.786667,98.935242 128.434265,103.956490 121.642548,112.976784 
	C119.399643,115.955635 115.169411,117.209816 113.579514,120.883133 
	C112.229408,124.002426 110.302032,126.544037 107.782341,128.775192 
	C105.316162,130.958954 102.581184,133.029358 100.731255,135.684052 
	C94.603500,144.477539 88.666588,153.460205 82.233711,161.976715 
	C75.804863,170.487930 72.023209,180.358307 66.060623,189.108261 
	C60.732948,196.926498 58.165813,206.620438 54.336033,215.467422 
	C52.738186,219.158554 50.476353,222.655914 49.470837,226.491577 
	C46.833652,236.551483 42.678322,246.134598 40.756355,256.443542 
	C39.629120,262.489716 37.301128,268.310913 37.309696,274.600098 
	C37.311489,275.914520 37.439240,277.445007 36.847244,278.507111 
	C34.032883,283.556427 34.948925,289.406250 32.865791,294.851776 
	C30.530138,300.957428 31.278589,308.435852 30.693249,315.276764 
	C29.027407,334.745636 30.839811,354.284821 32.387333,373.757477 
	C32.438934,374.406769 32.457954,375.380554 32.853542,375.630066 
	C36.258816,377.777405 35.146118,381.156006 35.323387,384.176758 
	C35.420795,385.836609 35.037933,387.656250 35.589878,389.135895 
	C38.503754,396.947601 38.363228,405.401611 41.112881,413.299438 
	C43.924011,421.373840 44.683590,430.083649 48.430908,437.954193 
	C49.777924,440.783325 50.984398,443.857330 51.930790,446.716583 
	C55.778290,458.340637 60.466999,469.661469 66.474190,480.158844 
	C72.565514,490.803192 77.759071,502.019012 85.741722,511.670258 
	C93.165543,520.645935 98.607826,531.228149 107.509392,539.078979 
	C109.991402,541.268066 109.587112,545.187134 112.730270,547.190002 
	C122.110855,553.167358 127.266159,563.677734 137.337418,569.353882 
	C143.765503,572.976746 147.950821,580.135010 154.573120,584.285339 
	C160.597092,588.060669 165.748260,593.244812 171.819229,596.925476 
	C182.875900,603.628906 194.176437,609.976074 205.682907,615.871338 
	C211.141617,618.668152 216.529465,621.670593 222.771561,623.216431 
	C226.843918,624.224976 231.022522,626.873230 235.103363,628.507751 
	C239.562958,630.294006 243.878769,633.123657 248.761017,633.543396 
	C255.538208,634.126038 261.426147,637.676697 268.087524,638.632568 
	C272.879700,639.320190 277.267792,642.063171 282.357330,641.680237 
	C284.157135,641.544861 286.142822,641.235474 287.746368,642.268433 
	C292.508759,645.336243 298.270203,642.974548 303.597595,646.134033 
	C307.942078,648.710571 314.821228,647.965881 320.384705,648.249084 
	C342.215973,649.360413 364.122925,649.097290 385.918182,646.617249 
	C386.411377,646.561157 387.121033,646.624573 387.353851,646.332520 
	C390.509186,642.374939 394.923309,643.982361 398.894409,643.628052 
	C400.369293,643.496399 401.885254,643.425903 403.294006,643.020203 
	C410.171753,641.039856 417.191925,639.574585 424.130493,637.901428 
	C432.991394,635.764954 441.712250,633.244629 450.283386,630.280884 
	C455.924927,628.330139 460.972076,624.358887 466.690979,623.002808 
	C475.687805,620.869507 483.646515,616.429504 491.292633,612.028748 
	C501.845459,605.954956 513.159424,600.996948 522.548340,592.836792 
	C529.981750,586.376160 539.936096,583.110840 545.950989,574.704041 
	C546.873596,573.414490 548.143921,572.305359 549.786377,571.637024 
	C555.024536,569.505615 558.703430,565.310425 562.085144,561.101379 
	C564.069641,558.631409 565.861389,555.880676 568.470520,554.271057 
	C578.303589,548.204895 582.038879,536.514282 591.285278,529.974365 
	C591.677063,529.697327 592.154236,529.244751 592.205139,528.826904 
	C592.856018,523.483337 597.421387,520.480164 600.241272,516.723022 
	C608.951355,505.118256 615.854309,492.502411 622.920105,479.961914 
	C628.454773,470.138916 632.242249,459.477325 636.539307,449.080994 
	C637.375671,447.057526 639.599670,446.409821 639.889587,443.837982 
	C640.284180,440.338409 641.721497,436.936615 642.866943,433.545380 
	C645.627991,425.371552 647.902832,417.052551 649.646484,408.623077 
	C650.569946,404.158661 650.842468,399.180634 652.400574,395.254547 
	C654.969177,388.781891 651.145508,381.129211 656.742554,375.596527 
	C656.051270,364.499664 659.432007,353.736877 658.955750,342.547882 
	C658.253174,326.042297 659.156616,309.468994 656.752197,293.030975 
	C656.632446,292.211761 656.780762,291.205475 656.355957,290.601654 
	C652.172974,284.655304 653.473206,277.464691 651.865112,270.941376 
	C651.249146,268.442413 651.170166,265.841492 650.538696,263.256073 
	C649.650818,259.621002 648.211304,256.139496 647.565857,252.379837 
	C646.497986,246.160065 644.009338,240.195038 642.744080,233.995193 
	C641.583496,228.308060 638.144714,223.717850 636.133301,218.448288 
	C634.621704,214.488342 633.753662,210.177658 631.782410,206.564331 
	C627.650940,198.991470 624.804321,190.836380 620.062134,183.497787 
	C614.228577,174.470108 610.123962,164.430893 603.159607,155.958878 
	C595.606140,146.770233 590.216248,135.843048 580.809326,128.100464 
	C579.694397,127.182785 578.360596,125.914192 578.144470,124.636375 
	C577.485291,120.739204 574.720764,118.363014 571.942932,116.547050 
	C564.072083,111.401573 559.800903,102.608894 551.130310,97.921928 
	C544.776733,94.487488 540.786804,87.138870 534.034912,83.342819 
	C527.908875,79.898598 522.838013,74.779793 517.004883,71.051147 
	C510.749603,67.052650 504.437103,62.663097 497.118835,60.485668 
	C495.733093,60.073341 494.662079,59.335865 493.926483,58.258381 
	C492.126404,55.621769 489.338074,54.516472 486.598694,53.481525 
	C479.316498,50.730274 472.372620,47.210945 465.105072,44.379498 
	C455.601471,40.676899 446.068542,37.239906 436.410339,33.953224 
	C422.879181,29.348593 408.875153,27.495380 394.229675,24.383661 
z"/>
<path fill="#000000" opacity="1.000000" stroke="none" 
	d="
M530.414551,198.580505 
	C537.846802,208.137726 544.283447,217.838196 549.089539,228.650131 
	C553.047241,237.553497 558.691406,245.794403 561.383606,255.151474 
	C563.123474,261.198303 566.117981,266.918518 566.442505,273.475769 
	C566.630615,277.276276 568.902466,280.959534 569.181458,284.772766 
	C569.656006,291.258484 572.649536,297.006195 573.540894,303.425873 
	C575.671814,318.773438 575.603821,334.148651 575.089722,349.498444 
	C574.861450,356.315308 574.687012,363.658295 572.821289,369.950928 
	C568.710266,383.816620 567.119019,398.358612 561.833557,411.774689 
	C559.423828,417.891357 557.347900,424.234314 553.781006,430.099152 
	C549.786499,436.667145 547.212219,444.255157 543.192200,450.897522 
	C538.307373,458.968658 532.125305,466.258514 527.296326,474.358429 
	C522.834656,481.842255 515.597107,486.707672 510.710388,493.709015 
	C507.742065,497.961823 502.977509,500.390198 499.383698,504.049164 
	C491.009827,512.574829 481.034302,519.001038 471.446869,526.021057 
	C462.468872,532.594910 452.475403,537.005859 443.066589,542.599915 
	C434.224915,547.856812 424.231934,550.037659 414.670105,553.377686 
	C405.354187,556.631775 395.322662,557.096191 386.057831,559.814392 
	C366.435669,565.571350 346.583954,564.470459 326.777283,564.037476 
	C320.891388,563.908875 314.175507,563.988220 308.837250,561.945435 
	C301.121124,558.992554 293.054932,558.059937 285.263733,556.069458 
	C274.092957,553.215576 263.072815,550.064392 252.752335,545.159851 
	C247.861313,542.835510 242.577393,541.023987 238.107208,537.634644 
	C235.278015,535.489502 231.495407,535.015991 228.382935,533.054260 
	C219.659271,527.556030 211.605042,521.088440 202.960815,515.536499 
	C195.071518,510.469330 188.965591,503.551056 182.361740,497.245483 
	C174.055954,489.314789 166.654892,480.398743 159.832687,471.051849 
	C153.827637,462.824585 147.667572,454.636627 143.308136,445.467743 
	C138.110275,434.535400 131.262451,424.308075 127.757660,412.684052 
	C125.931862,406.628662 123.491524,400.737396 122.628380,394.262360 
	C121.661224,387.007111 120.741455,379.341461 118.260986,372.719543 
	C115.903839,366.426788 117.346169,360.263733 115.650299,354.489258 
	C112.555099,343.950012 113.601097,333.289825 114.262047,322.858521 
	C114.737328,315.357513 113.962807,307.176147 116.334404,300.376740 
	C120.640602,288.030823 121.317780,274.931702 126.075768,262.661896 
	C128.682678,255.939285 131.632126,249.067337 133.262634,241.827545 
	C133.975052,238.664322 136.738205,236.047226 138.241425,232.927139 
	C141.362900,226.448257 143.455170,219.199463 148.314209,213.872925 
	C156.263397,205.158875 160.591644,193.988739 169.319321,185.645905 
	C175.290680,179.937820 179.925461,172.703537 186.403809,167.190887 
	C196.967422,158.201965 208.104080,150.028229 219.200455,141.744873 
	C229.374725,134.149887 241.339828,130.574310 251.443207,123.228424 
	C256.390930,119.631081 263.314972,118.687378 269.411377,116.753441 
	C275.023346,114.973190 280.922241,113.946281 286.316681,111.685448 
	C289.840454,110.208611 293.541718,110.207390 296.950104,109.772957 
	C304.221649,108.846115 310.936646,106.002831 318.355927,105.295387 
	C330.905182,104.098801 343.459839,102.894264 355.935333,103.928825 
	C363.611481,104.565399 371.944916,103.831268 378.832275,106.267471 
	C387.324921,109.271492 396.149963,109.741920 404.656219,112.159142 
	C414.835083,115.051651 425.113861,117.690392 434.601410,122.184753 
	C445.298279,127.251976 456.300446,131.939529 466.137268,138.642151 
	C475.242767,144.846451 484.420654,150.910049 492.667999,158.405426 
	C497.726776,163.002960 503.604034,166.930527 508.199951,171.972717 
	C515.894226,180.414047 523.930054,188.634430 530.414551,198.580505 
M275.731049,119.403389 
	C272.435181,121.682999 268.015930,120.315079 264.904541,122.205879 
	C258.622040,126.023743 251.944092,128.769485 245.265686,131.724121 
	C235.943542,135.848373 227.112549,141.078308 218.908035,147.257553 
	C216.967712,148.718918 214.653534,149.674042 212.643448,151.054443 
	C206.227966,155.460144 200.651474,160.912476 194.402283,165.584259 
	C183.451569,173.770813 175.582535,185.179337 166.599548,195.394150 
	C160.998322,201.763458 158.051636,209.995148 152.144562,216.270523 
	C150.467712,218.051910 148.338638,220.138641 147.609161,222.593430 
	C145.397995,230.034302 140.040680,236.126114 138.343506,243.613007 
	C137.154953,248.856125 132.879837,252.286667 132.045517,257.782532 
	C130.779205,266.123779 127.881332,274.206970 125.608482,282.337128 
	C122.716347,292.682587 121.843040,303.204956 120.476898,313.671997 
	C119.557266,320.717957 120.638596,328.000488 120.226357,335.142670 
	C119.479546,348.081299 121.460701,360.826569 122.339607,373.650482 
	C122.384865,374.310852 122.409683,375.010071 122.642860,375.614471 
	C125.518112,383.066040 126.338127,391.026337 128.403900,398.667816 
	C130.091675,404.911041 132.392410,410.988739 134.426300,417.138184 
	C134.986282,418.831360 136.945175,419.251801 137.421829,421.413818 
	C139.412109,430.441071 144.716263,438.151581 148.441345,446.482635 
	C151.071274,452.364380 155.583527,457.498749 159.150208,463.038086 
	C164.500015,471.346771 171.076385,478.987518 177.882278,486.203918 
	C185.285980,494.054260 193.113480,501.456635 201.759888,508.167450 
	C207.770813,512.832825 213.752533,517.411560 219.977875,521.839294 
	C228.385513,527.819092 237.158463,532.938049 246.411804,537.268555 
	C252.982773,540.343689 259.470032,544.104065 266.211243,546.180725 
	C274.386658,548.699158 282.584076,551.488159 291.097198,553.313843 
	C302.624878,555.785950 314.091858,558.378845 325.819458,558.475525 
	C344.853546,558.632446 363.987213,560.045044 382.885864,556.491272 
	C390.787231,555.005371 398.705536,553.377258 406.400299,551.088196 
	C414.643433,548.635925 422.714783,545.741943 430.691193,542.236145 
	C439.519257,538.356079 448.045776,533.719971 457.100128,530.325806 
	C462.122528,528.443176 464.811646,523.026611 469.631348,521.246643 
	C479.308960,517.672729 485.906769,510.016418 493.356781,503.754150 
	C503.668152,495.086792 512.994019,485.257446 521.440979,474.532745 
	C526.239624,468.440125 529.887146,461.717468 534.437012,455.539368 
	C537.154297,451.849579 540.455322,448.661163 542.085266,443.913696 
	C544.680603,436.354431 548.107666,428.940308 552.252563,422.114227 
	C554.247620,418.828613 555.855347,415.486755 556.581360,412.014191 
	C558.323730,403.681274 561.459106,395.760620 563.644958,387.573761 
	C566.243286,377.841827 568.075073,367.893982 568.377014,358.217682 
	C569.143372,333.661194 570.624451,308.879425 564.625122,284.638031 
	C563.102051,278.483856 561.749329,272.279785 559.806396,266.190369 
	C557.448853,258.800964 554.636536,251.642822 551.465576,244.610779 
	C547.831848,236.552475 544.888550,227.960037 539.945801,220.767593 
	C532.700562,210.224716 527.306580,198.229477 517.273560,189.698883 
	C516.783325,189.282089 516.431274,188.671677 516.102356,188.101013 
	C512.524231,181.893600 507.249847,177.145386 502.161194,172.304611 
	C497.282074,167.663177 491.807007,163.631927 486.685547,159.309235 
	C480.928558,154.450134 475.135345,150.023911 468.715912,146.050674 
	C460.534485,140.986862 452.894806,135.052292 443.929779,131.307266 
	C438.963196,129.232513 433.514496,127.904305 429.119019,124.982216 
	C424.540588,121.938522 419.552338,120.650505 414.553741,119.535210 
	C408.177246,118.112465 401.902222,116.180565 395.650116,114.490807 
	C385.766418,111.819550 375.665405,110.012802 365.745300,109.702072 
	C344.527069,109.037460 323.222900,108.146713 302.104614,113.047050 
	C293.558807,115.030029 284.891144,116.467041 275.731049,119.403389 
z"/>
<path fill="#000000" opacity="1.000000" stroke="none" 
	d="
M221.208191,74.943085 
	C225.823013,78.219574 228.196106,82.571571 229.887878,87.439537 
	C231.125900,91.001884 228.601471,93.355728 227.357391,96.104263 
	C226.910583,97.091400 225.917084,97.831078 224.941742,98.948792 
	C232.606308,102.906807 240.816330,105.362427 246.467346,112.085983 
	C242.449387,118.988495 234.422867,120.150383 226.959061,114.054131 
	C223.180984,110.968292 218.564087,110.603943 214.384872,108.875130 
	C212.707809,108.181389 211.030426,109.123871 209.945724,110.242142 
	C208.833237,111.389053 209.253296,113.006325 210.027100,114.422935 
	C211.984131,118.005722 213.665512,121.763664 215.892303,125.166817 
	C217.706619,127.939598 217.744492,129.458786 214.379028,130.785568 
	C212.629196,131.475418 211.242752,133.087006 209.597992,134.354797 
	C206.866989,132.312332 204.930862,130.139755 203.431229,127.179596 
	C197.900681,116.262741 192.050461,105.505699 186.198410,94.754990 
	C183.985657,90.690002 184.075668,87.791222 188.845901,85.660042 
	C196.129807,82.405838 203.191803,78.657112 210.454178,75.351593 
	C213.727524,73.861710 217.341354,74.734863 221.208191,74.943085 
M203.427582,99.751999 
	C203.736984,100.590462 204.380264,101.483246 205.203644,101.008003 
	C209.442657,98.561272 213.601471,95.974113 217.757553,93.386627 
	C218.516464,92.914146 218.663132,92.043839 218.551132,91.173843 
	C217.990997,86.822205 213.349930,84.303589 209.405655,86.252312 
	C207.805222,87.043022 206.272141,87.969849 204.706711,88.831627 
	C196.473633,93.363998 196.893860,94.065697 203.427582,99.751999 
z"/>
<path fill="#000000" opacity="1.000000" stroke="none" 
	d="
M502.252411,126.159477 
	C491.212250,138.363373 473.034760,134.527832 464.023926,124.104591 
	C456.589325,115.504616 457.964264,102.584801 463.720703,93.979378 
	C465.001190,92.065216 466.624268,90.502304 467.157471,88.072655 
	C467.400879,86.963394 468.617249,85.770386 469.700256,85.188339 
	C481.352539,78.926086 492.987701,78.275230 503.725952,86.853577 
	C507.966614,90.241219 510.554993,95.193489 511.331299,100.910889 
	C512.679443,110.840195 508.641846,118.701401 502.252411,126.159477 
M494.486389,94.950409 
	C492.774048,93.254822 490.784943,92.626663 488.320740,92.263069 
	C481.384613,91.239647 478.055542,96.117447 474.463043,100.295700 
	C470.005341,105.480232 468.302460,110.987061 473.290833,117.245422 
	C476.530029,121.309334 480.419495,122.876228 485.273376,122.590637 
	C490.183716,122.301727 492.544556,118.183403 495.296875,115.058014 
	C500.531891,109.113441 500.173889,100.853523 494.486389,94.950409 
z"/>
<path fill="#000000" opacity="1.000000" stroke="none" 
	d="
M277.115601,103.384460 
	C268.852539,107.773315 260.755432,107.327347 252.468246,104.488747 
	C250.572205,103.839302 249.398941,102.631927 248.084686,101.425003 
	C245.921082,99.438049 244.446426,96.501022 246.766678,94.524887 
	C249.144455,92.499779 252.537262,89.794792 256.101654,92.799011 
	C258.031891,94.425888 260.143036,95.592270 262.337311,96.683372 
	C267.116516,99.059814 273.979462,94.525002 273.858398,89.250710 
	C273.796387,86.548698 272.839935,85.293495 270.025543,85.353409 
	C265.036652,85.459610 260.033417,85.587860 255.054840,85.336754 
	C245.173584,84.838356 234.295868,74.954102 242.357346,63.230927 
	C245.235397,59.045609 249.381882,54.066292 256.113495,54.581173 
	C257.392273,54.678982 258.789673,54.434319 260.001740,53.990768 
	C265.694550,51.907516 274.500214,55.241329 276.817139,60.680294 
	C277.559265,62.422466 278.310516,65.054420 276.205353,66.083328 
	C273.303101,67.501801 270.094635,70.267868 266.667053,67.123016 
	C263.163177,63.908142 259.614136,63.195194 255.469421,65.902855 
	C253.976883,66.877914 251.029922,66.176476 251.555618,69.281357 
	C252.008621,71.956848 254.266296,73.802597 256.403900,74.261337 
	C259.250061,74.872139 262.430084,75.624268 265.287628,72.947510 
	C267.595276,70.785858 270.691498,70.748886 273.243347,73.145081 
	C275.619171,75.375977 279.001984,75.364479 281.618225,77.756676 
	C285.006714,80.854988 284.775238,85.561180 287.998871,88.462097 
	C288.685486,89.079964 288.419373,90.810333 287.601349,91.732185 
	C284.219116,95.543633 282.591919,100.941933 277.115601,103.384460 
z"/>
<path fill="#000000" opacity="1.000000" stroke="none" 
	d="
M391.128113,86.413208 
	C393.081696,85.318893 394.785187,84.393822 394.763763,82.225380 
	C394.730774,78.881142 396.463379,75.560570 396.383087,72.643982 
	C396.197113,65.889549 399.432709,59.756165 398.880707,53.069988 
	C398.578613,49.410553 400.131836,46.854748 404.170837,46.743774 
	C408.059753,46.636921 411.207458,49.488953 411.288635,53.062290 
	C411.487488,61.817657 409.724579,70.296898 407.604126,78.723373 
	C406.969727,81.244370 407.001801,83.772392 405.905396,86.365074 
	C402.058502,95.461609 395.800293,99.821304 385.306183,98.194412 
	C377.288696,96.951469 369.862030,93.904892 365.978180,85.625938 
	C365.065033,83.679443 364.853302,81.861328 364.818726,79.892090 
	C364.685577,72.313362 365.939423,65.104225 369.325775,58.157608 
	C370.457581,55.835941 369.725433,52.589806 369.786072,49.764992 
	C369.925476,43.269886 372.032562,41.820526 378.031281,44.258553 
	C379.549744,44.875694 381.428436,44.145901 382.341705,45.180614 
	C381.298370,53.466503 380.237274,61.386120 379.333801,69.323677 
	C378.983093,72.405052 379.575867,75.468971 377.852234,78.508698 
	C376.268280,81.302078 379.980072,86.149467 383.740753,86.545113 
	C386.044098,86.787437 388.398163,86.547150 391.128113,86.413208 
z"/>
<path fill="#000000" opacity="1.000000" stroke="none" 
	d="
M324.114075,84.001434 
	C323.309692,85.305977 322.573700,86.132378 322.350525,87.384071 
	C321.252106,93.544540 315.856537,96.428833 309.896271,94.210602 
	C308.085052,93.536530 307.625916,92.101349 308.096558,90.621758 
	C310.367004,83.483238 312.746521,76.377754 315.198822,69.299171 
	C317.677094,62.145592 320.571350,55.121857 322.719574,47.874134 
	C323.820465,44.159809 325.676758,42.494850 329.350525,42.665180 
	C332.464600,42.809559 335.658966,42.043552 338.160736,43.099682 
	C345.133392,59.522087 351.834625,75.507843 360.403473,90.751335 
	C357.293488,93.394615 353.986237,91.828934 351.047180,92.402664 
	C346.593781,93.272003 345.696472,89.916138 344.805969,87.035019 
	C343.269501,82.063896 339.840424,80.631454 335.226135,81.427399 
	C331.558777,82.060013 327.175171,79.301308 324.114075,84.001434 
M330.035156,63.139561 
	C327.728394,65.449051 328.596832,68.588348 327.310791,71.651321 
	C331.088470,71.115471 334.609955,72.927277 337.995636,69.538101 
	C332.985291,67.034721 334.036591,61.238754 330.503998,57.152821 
	C330.372559,59.443203 330.288055,60.915939 330.035156,63.139561 
z"/>
<path fill="#000000" opacity="1.000000" stroke="none" 
	d="
M180.955200,558.941589 
	C179.471542,560.713074 178.233368,562.611145 177.202148,564.709778 
	C175.120270,568.946594 172.018784,569.379700 168.411209,566.305725 
	C166.826385,564.955322 166.739655,563.761902 167.862122,562.051941 
	C172.324982,555.252991 176.736847,548.418884 181.049271,541.523804 
	C182.081833,539.872803 183.205460,538.379639 184.411835,536.861389 
	C188.222275,532.065735 192.069000,533.936890 195.666565,536.359924 
	C199.331757,538.828491 198.475281,542.181091 197.120438,546.037231 
	C195.845337,549.666382 193.583344,553.189758 194.228317,557.324463 
	C200.695450,556.377075 204.347198,550.926331 208.987000,546.966125 
	C213.007919,547.679871 215.687668,550.372192 218.668900,552.613037 
	C220.897858,554.288391 220.548691,555.480347 218.768219,557.342346 
	C213.094986,563.275085 209.083374,570.382629 205.280807,577.578491 
	C203.711349,580.548584 201.048859,582.535645 198.870087,584.851685 
	C197.597260,586.204712 194.329254,586.040222 192.566986,583.891602 
	C190.068268,580.845093 192.660919,577.992004 194.005310,576.020203 
	C196.507950,572.349548 197.860657,567.655334 202.351410,565.404419 
	C198.475250,566.467651 196.377609,569.614075 193.672165,571.985718 
	C190.623627,574.658264 187.318542,576.743408 183.041962,576.339661 
	C178.936157,575.951965 177.439713,573.202026 179.083420,569.469666 
	C180.448914,566.368958 182.941086,563.484375 181.504517,559.279602 
	C185.676193,558.267029 185.352219,554.692810 186.947861,551.975159 
	C183.886093,553.801025 181.348892,555.515320 180.955200,558.941589 
z"/>
<path fill="#000000" opacity="1.000000" stroke="none" 
	d="
M339.694153,585.989746 
	C346.265106,587.304382 350.097595,590.991516 351.321960,597.240601 
	C351.563507,598.473328 352.297607,599.228638 352.970367,600.174011 
	C354.865326,602.836975 355.037170,605.709290 352.814819,608.302917 
	C352.012726,609.239014 351.526703,610.132141 351.330994,611.332764 
	C349.889008,620.179260 343.813751,625.351318 334.892639,625.373413 
	C330.732574,625.383728 326.569244,625.263306 322.413452,625.394165 
	C319.274780,625.492981 317.823212,624.270203 317.838562,621.047791 
	C317.890106,610.231873 317.825500,599.415527 317.834839,588.599304 
	C317.836304,586.907898 317.930084,584.844727 320.158112,584.871948 
	C326.559998,584.949890 333.050385,583.464783 339.694153,585.989746 
M341.541718,613.598267 
	C341.612640,608.796387 341.926697,603.982239 341.686584,599.195984 
	C341.442932,594.339539 339.266510,593.351990 332.798584,593.303162 
	C328.229401,593.268555 328.219116,595.952515 328.268250,599.148254 
	C328.337128,603.625793 328.292206,608.104980 328.333588,612.583069 
	C328.347351,614.069824 328.241119,616.106262 330.048340,616.272217 
	C333.856689,616.621765 338.016724,618.090332 341.541718,613.598267 
z"/>
<path fill="#000000" opacity="1.000000" stroke="none" 
	d="
M430.507019,85.524864 
	C432.774750,79.251358 434.910522,73.361465 437.175446,67.115532 
	C434.893463,66.268417 432.395081,65.034744 429.753021,64.447365 
	C427.174164,63.874039 425.412750,62.662365 424.938385,60.150040 
	C424.503143,57.844925 424.571503,55.542377 426.800293,53.837227 
	C429.079498,52.093479 430.921478,52.673218 433.075043,54.176952 
	C440.671082,59.480915 450.153107,59.880695 458.337372,63.691368 
	C459.226440,64.105331 460.088623,64.602539 460.898193,65.156303 
	C462.521484,66.266655 466.052643,64.573479 465.936401,67.860260 
	C465.848480,70.346146 465.010071,73.687149 462.909790,74.748566 
	C460.506378,75.963188 457.370453,76.126572 454.582001,73.778297 
	C450.527771,70.364067 448.311035,71.508652 447.195587,76.865891 
	C446.868195,78.438293 446.066895,79.923424 445.401123,81.412033 
	C442.170197,88.636284 440.986176,96.590950 436.956940,103.605057 
	C435.370483,106.366760 435.950012,110.115723 430.975037,109.440826 
	C427.117432,108.917511 423.947601,105.871819 424.964050,102.121384 
	C426.451874,96.631493 428.541779,91.304756 430.507019,85.524864 
z"/>
<path fill="#000000" opacity="1.000000" stroke="none" 
	d="
M475.931641,586.691528 
	C478.805573,586.848450 480.397369,588.255859 481.033844,590.470581 
	C481.793579,593.114197 479.042389,592.957275 477.836090,594.076721 
	C472.277863,599.234619 464.770691,600.600708 458.334595,604.051331 
	C455.910950,605.350708 452.834839,604.875610 451.214447,600.950623 
	C447.654877,592.328369 443.399689,583.994812 439.506744,575.507507 
	C438.608826,573.549927 436.748627,572.748413 434.844513,571.106873 
	C439.284210,566.836853 445.033600,565.056274 450.196808,562.552002 
	C453.152222,561.118530 455.637451,559.065002 458.551544,557.618530 
	C461.824524,555.993835 464.218628,556.692017 465.708160,559.471985 
	C467.362488,562.559265 465.533997,564.745178 462.730957,566.296082 
	C458.190277,568.808411 453.075348,570.222229 448.714447,573.510376 
	C449.956909,575.168762 451.112732,576.711426 452.463348,578.514099 
	C455.750488,575.763733 459.569122,574.327698 463.161865,572.477295 
	C465.403931,571.322510 468.393799,570.553101 469.794159,573.144897 
	C471.330231,575.987915 470.413116,579.131104 467.416656,580.930664 
	C464.752441,582.530640 461.943970,583.958923 459.054535,585.095093 
	C456.410126,586.135010 455.613098,587.852051 456.899231,590.111145 
	C458.158936,592.323853 460.018250,593.159058 462.768646,591.706360 
	C466.803284,589.575500 470.902252,587.433411 475.931641,586.691528 
z"/>
<path fill="#000000" opacity="1.000000" stroke="none" 
	d="
M499.036743,567.225403 
	C503.615448,567.920410 507.724487,568.249695 510.529938,563.976746 
	C511.662323,562.251892 512.145935,560.779602 510.586609,559.070862 
	C509.193451,557.544128 507.450134,556.615967 505.797424,557.986328 
	C503.988464,559.486267 501.735138,560.033386 499.802826,561.213440 
	C495.919708,563.584656 490.289795,563.881409 487.060394,561.448547 
	C483.567444,558.817078 478.007385,555.363953 479.970947,549.450317 
	C481.866882,543.740356 486.067291,539.636108 491.938232,537.199585 
	C498.358215,534.535156 504.293457,535.515747 508.670319,540.742065 
	C506.088928,545.989563 503.405212,547.206665 497.716858,545.646179 
	C494.600525,544.791260 492.450317,546.952148 490.904297,548.716553 
	C489.405914,550.426453 490.328247,552.450806 493.248016,552.630066 
	C495.788330,552.785950 497.687256,551.211792 499.703552,550.265320 
	C504.905701,547.823242 509.953583,547.608643 514.771790,550.625671 
	C518.692139,553.080566 520.052063,557.647766 522.066406,561.505066 
	C523.273560,563.816772 520.053589,564.973206 519.034241,566.755249 
	C514.583984,574.535156 505.309326,578.324341 496.915985,576.230164 
	C494.146301,575.539062 492.728882,573.259033 490.770355,570.896973 
	C493.601990,569.330200 493.952942,564.139465 499.036743,567.225403 
z"/>
<path fill="#000000" opacity="1.000000" stroke="none" 
	d="
M602.309326,336.892090 
	C600.030518,335.238373 597.741211,334.105011 596.092590,332.364655 
	C593.931335,330.083069 594.309998,328.082367 597.877808,327.709503 
	C599.198303,327.571503 600.541809,327.643738 601.874878,327.637817 
	C612.015747,327.592651 612.604309,327.070068 613.692383,316.655182 
	C613.888611,314.776489 613.799622,312.874603 616.445129,312.775391 
	C619.130920,312.674622 619.049194,314.577972 619.386719,316.444031 
	C619.820496,318.841736 620.841492,321.228882 621.813904,323.319580 
	C622.915894,325.688934 625.099854,328.024414 628.819641,327.736450 
	C632.672913,327.438141 636.665344,327.181763 641.362732,328.357544 
	C638.670105,330.904907 636.846985,333.050049 634.161499,334.368927 
	C628.493225,337.152588 627.621704,339.635803 629.923401,345.710388 
	C630.560669,347.392212 629.963867,349.363007 631.354614,350.910126 
	C632.492371,352.175903 632.581482,353.825348 631.104553,354.829163 
	C629.812805,355.707123 628.010437,355.698395 626.981934,354.380188 
	C624.215637,350.834595 620.403442,349.125488 616.101685,347.682251 
	C611.907776,351.049286 608.394470,356.296814 601.132812,354.858673 
	C602.711914,351.509399 602.885437,348.309082 605.277771,345.427795 
	C609.047241,340.887848 608.447144,340.005432 602.309326,336.892090 
z"/>
<path fill="#000000" opacity="1.000000" stroke="none" 
	d="
M60.864403,342.980591 
	C61.122723,338.179169 58.128021,336.115875 54.846836,334.330261 
	C52.883240,333.261658 50.797646,332.155609 51.368481,329.556061 
	C51.984074,326.752716 54.565472,327.882507 56.387836,327.672882 
	C57.703091,327.521606 59.060360,327.521576 60.379082,327.652954 
	C65.060196,328.119171 68.692101,327.680328 68.027412,321.363251 
	C67.776474,318.978271 70.120705,316.969391 70.208061,314.351440 
	C70.253838,312.979614 71.690079,312.775024 72.931969,312.797821 
	C74.324913,312.823425 75.210159,313.509247 75.183357,314.893768 
	C75.130913,317.602722 76.905640,320.136780 76.910988,322.391235 
	C76.925056,328.317474 80.503693,327.603577 84.225906,327.669983 
	C87.983772,327.737030 91.806137,327.115417 95.857826,328.275970 
	C94.414093,333.605072 89.176994,334.510437 85.965729,337.443512 
	C82.325806,340.768066 82.135956,343.510101 85.275848,346.964813 
	C87.150360,349.027313 85.754692,352.179443 88.046959,354.125092 
	C84.281006,355.471863 84.281006,355.471863 72.543236,347.666168 
	C64.566360,353.563660 61.136795,355.191864 57.599564,354.550415 
	C58.691273,350.811066 59.775345,347.097900 60.864403,342.980591 
z"/>
<path fill="#000000" opacity="1.000000" stroke="none" 
	d="
M225.319687,583.293396 
	C230.691086,577.936951 235.755493,572.757568 240.977646,567.742371 
	C244.580383,564.282410 246.678558,564.730530 252.400253,569.519836 
	C255.454926,572.076721 254.900131,574.419739 252.333633,576.942627 
	C250.877533,578.373962 251.335770,580.389954 251.329178,582.188538 
	C251.295670,591.315308 251.313736,600.442322 251.313736,609.646362 
	C244.258743,608.739502 242.374771,607.197327 241.856552,601.304932 
	C241.407928,596.204224 236.463394,596.116211 233.806839,593.518738 
	C232.796478,592.530823 230.788528,592.563171 229.251877,592.135132 
	C226.724594,598.199036 224.719452,599.280334 218.614075,598.359253 
	C216.538147,598.046143 215.182236,596.856262 214.420975,595.229492 
	C213.479309,593.217285 215.446671,592.087952 216.683289,591.293640 
	C219.965729,589.185242 222.276215,586.112427 225.319687,583.293396 
M243.743332,583.373840 
	C243.539673,582.169373 244.139435,580.609924 242.070618,580.026245 
	C240.311829,581.652710 237.744751,582.738892 237.589020,586.447632 
	C239.814056,585.993164 241.062454,587.982666 243.326599,588.134949 
	C243.477829,586.619507 243.606766,585.327698 243.743332,583.373840 
z"/>
<path fill="#000000" opacity="1.000000" stroke="none" 
	d="
M403.208496,602.751892 
	C398.194427,600.415405 397.698547,595.160583 394.945343,591.564636 
	C394.109894,590.473450 393.580780,588.923645 392.536224,587.903992 
	C390.087067,585.513367 390.623932,583.288574 393.140991,581.721497 
	C395.578125,580.204224 398.112000,579.609375 400.364349,582.727234 
	C403.919922,587.649170 408.265167,592.003906 410.618622,597.766846 
	C410.936951,598.546265 412.027924,599.010071 412.820435,599.669312 
	C414.258301,598.071655 413.946960,596.256897 413.693420,594.773987 
	C412.593689,588.341492 415.906067,582.534180 416.117218,576.222656 
	C416.236206,572.665344 420.927704,572.121399 423.943390,571.965271 
	C427.206909,571.796326 426.590820,575.197266 426.189697,576.962402 
	C423.664246,588.075378 424.680328,599.353516 424.120209,610.557251 
	C423.908600,614.789246 420.082672,616.456238 416.512482,617.216858 
	C412.873108,617.992249 411.010040,615.810486 409.585571,612.373596 
	C408.177551,608.976562 405.585083,606.070374 403.208496,602.751892 
z"/>
<path fill="#000000" opacity="1.000000" stroke="none" 
	d="
M297.857788,620.314209 
	C291.701996,623.079102 286.457855,619.144043 280.846069,618.568542 
	C278.425415,618.320312 275.799469,617.507629 273.195068,617.343628 
	C270.568756,617.178162 269.877838,616.004700 270.452972,613.385254 
	C271.881683,606.878357 273.857666,600.459106 273.842010,593.687134 
	C273.831757,589.239624 276.149414,585.247070 276.269226,580.678833 
	C276.349365,577.625183 279.958954,578.896362 282.106598,578.726135 
	C284.078308,578.569824 285.347992,579.526123 285.234131,581.629211 
	C285.041077,585.195557 285.631317,588.658508 284.010437,592.312988 
	C281.977234,596.897217 283.365143,602.259094 281.932922,607.344910 
	C281.232391,609.832520 286.101807,612.644897 290.259674,612.703918 
	C293.689423,612.752502 297.773132,611.346802 299.828156,615.973022 
	C299.262207,617.268616 298.673920,618.615479 297.857788,620.314209 
z"/>
<path fill="#000000" opacity="1.000000" stroke="none" 
	d="
M369.839478,602.764038 
	C369.208740,597.428345 371.494019,592.138550 367.244293,587.745667 
	C366.196228,586.662292 367.479218,584.736572 369.364349,584.794373 
	C371.772034,584.868103 373.790283,583.852417 375.929169,582.763489 
	C378.501282,586.024231 379.854980,589.410522 379.286957,593.362610 
	C378.092743,601.671997 382.287750,609.488098 381.387543,617.822449 
	C381.029053,621.141663 381.001556,623.480164 376.605591,623.460754 
	C372.243164,623.441406 371.435913,621.136353 371.918915,617.787170 
	C372.654297,612.688416 370.378601,608.102722 369.839478,602.764038 
z"/>
<path fill="#000000" opacity="1.000000" stroke="none" 
	d="
M443.870087,419.161926 
	C437.152588,421.850464 431.138000,425.009613 425.315155,428.653503 
	C417.400940,433.606110 408.279755,434.716522 399.313385,436.673279 
	C391.735443,438.326996 384.123688,440.670197 376.515594,441.561890 
	C369.902435,442.336945 363.693512,444.569519 357.328156,445.851074 
	C348.422821,447.643982 339.200928,445.614044 330.576050,449.072784 
	C328.547577,449.886230 325.961517,449.357056 323.631744,449.362701 
	C314.632721,449.384491 305.607117,449.805115 296.641663,449.256439 
	C286.972198,448.664703 277.688385,453.154907 268.112091,451.295990 
	C254.140289,448.583832 239.871094,450.937195 226.088165,448.885803 
	C215.932373,447.374298 205.971268,448.022278 195.943771,447.402313 
	C190.762695,447.081970 190.034882,446.065613 192.134598,441.416016 
	C197.909851,428.627380 204.170090,416.019989 209.150864,402.927155 
	C211.466522,396.840027 213.392914,390.200195 216.438690,384.791504 
	C220.907883,376.855042 223.621582,368.327881 227.263565,360.175995 
	C231.962585,349.658112 237.366989,339.357330 241.176315,328.569214 
	C243.779205,321.197784 247.494537,314.308105 249.710724,306.760681 
	C251.591202,300.356506 256.163452,297.358612 263.794586,297.450073 
	C300.952148,297.895447 338.118011,297.643646 375.280914,297.650757 
	C382.669159,297.652161 387.893860,294.390045 391.171417,287.706818 
	C397.353394,275.101379 395.998077,266.810059 385.974213,257.717102 
	C383.765411,255.713409 381.099365,255.315002 378.136932,255.319839 
	C332.475006,255.394318 286.812958,255.377121 241.150909,255.379593 
	C239.651138,255.379669 238.149323,255.408752 236.652191,255.341354 
	C235.177719,255.275009 233.463699,255.423660 233.172531,253.362030 
	C232.890411,251.364410 234.434845,251.246735 235.827698,250.526764 
	C239.005524,248.884125 242.214478,247.050278 244.862732,244.681412 
	C253.041031,237.365906 262.578308,232.026886 271.408356,225.673477 
	C275.248138,222.910690 279.096130,222.616028 283.389313,222.622574 
	C314.552765,222.670197 345.720001,222.887512 376.876221,222.410339 
	C382.017731,222.331589 385.861511,224.691406 390.218903,225.936935 
	C402.056335,229.320633 410.343750,237.131592 417.752747,247.144180 
	C425.532990,257.658508 426.424927,268.835388 426.269043,280.795319 
	C426.261017,281.411713 426.329407,282.029053 426.614655,282.668152 
	C426.287537,274.790619 427.700836,267.285370 430.629761,259.981201 
	C432.834534,254.482864 436.398499,250.125214 441.198212,246.943405 
	C447.396667,242.834320 453.342926,238.156464 460.933929,236.600708 
	C464.916473,235.784500 468.809784,233.953934 472.788330,233.808121 
	C483.606049,233.411667 494.447876,233.637360 505.279816,233.685043 
	C508.921265,233.701065 512.044617,236.001205 515.809937,236.098404 
	C517.322754,236.137466 520.065979,237.943863 517.983276,240.829605 
	C517.793274,241.092926 517.665833,241.419128 517.576904,241.735153 
	C514.863464,251.381042 514.863281,251.267487 504.701385,251.400864 
	C494.843811,251.530258 485.448853,253.821609 476.013550,256.786560 
	C470.215424,258.608521 465.907074,261.616760 461.900757,265.694550 
	C457.713867,269.956146 457.505951,273.311340 459.431580,279.060822 
	C462.246002,287.463928 466.081085,295.348877 470.241882,303.101776 
	C476.369995,314.520416 480.361298,326.471954 481.554047,339.510223 
	C481.931488,343.636261 483.220398,347.750092 483.360962,352.068512 
	C483.788300,365.198425 480.277863,377.289307 474.718170,389.008789 
	C473.203308,392.202057 470.688110,394.352051 468.677124,396.996490 
	C463.909973,403.265228 457.925720,408.121002 452.178558,413.303009 
	C449.727600,415.512939 446.322052,416.353302 443.870087,419.161926 
M379.752991,391.307281 
	C390.419525,388.947510 400.951508,386.272156 410.480011,380.570526 
	C413.715851,378.634277 416.420990,375.537750 419.509674,374.152435 
	C426.738464,370.910248 429.601746,364.691833 432.867065,358.538147 
	C435.651093,353.291534 437.730133,347.704773 439.217285,341.976654 
	C440.346405,337.627686 440.828979,332.824463 438.969391,328.745026 
	C436.862457,324.122894 436.756744,319.008820 435.501129,314.342285 
	C433.504181,306.920502 429.272247,300.249146 428.395355,292.512970 
	C428.251068,291.240173 426.647095,290.205261 424.923218,290.417786 
	C423.762878,292.348938 424.250183,294.552948 423.163788,296.598602 
	C419.730377,303.063446 414.634674,308.127502 409.885010,313.472290 
	C407.545288,316.105225 404.672302,318.092773 401.510620,319.997803 
	C397.544495,322.387543 392.705811,323.007355 389.407776,326.047516 
	C387.110901,328.164825 384.887146,328.381348 382.234436,328.379883 
	C363.238647,328.369415 344.242859,328.364838 325.247131,328.392822 
	C322.884613,328.396301 320.522400,328.601868 317.199768,328.759308 
	C327.769623,336.933044 334.681274,347.220428 344.252716,354.810608 
	C347.346985,357.264343 349.040527,361.058044 352.252289,363.522308 
	C356.959686,367.134094 360.727905,371.742310 364.881531,375.935486 
	C369.799591,380.900269 373.219421,387.262512 379.752991,391.307281 
M287.501923,395.629181 
	C304.768158,395.255157 321.998383,400.155884 340.143982,396.560730 
	C338.752258,394.440765 338.102509,392.837280 336.949005,391.787201 
	C322.626770,378.748444 309.595947,364.407501 295.674957,350.965668 
	C289.728821,345.224152 283.925629,339.333893 278.094666,333.474243 
	C276.319092,331.689941 274.107666,331.046753 273.695251,333.952850 
	C272.801849,340.248383 268.424438,344.689056 266.017548,350.150848 
	C260.725616,362.159424 257.624573,375.129150 249.937042,386.116425 
	C247.866440,389.075806 250.769241,393.839355 254.473999,393.502319 
	C265.303650,392.517273 275.721313,396.732300 287.501923,395.629181 
M261.267029,421.401367 
	C259.516144,421.446503 257.985016,421.740509 258.097687,424.037994 
	C262.964722,424.968475 280.694183,424.871490 284.663391,423.410400 
	C277.488525,419.694946 269.617035,422.158691 261.267029,421.401367 
M332.150116,421.391174 
	C318.586578,421.377777 318.586578,421.377777 317.025940,424.333038 
	C324.295868,424.333038 331.409973,424.333038 338.705963,424.333038 
	C337.761292,420.901764 335.245789,421.468201 332.150116,421.391174 
M416.617645,406.149323 
	C419.839142,404.936768 423.470795,404.382294 426.015015,400.828613 
	C422.193604,402.233521 419.082214,403.429138 415.930450,404.506714 
	C414.895477,404.860535 413.948792,405.188904 414.480133,406.453369 
	C414.803986,407.224030 415.547546,406.903473 416.617645,406.149323 
z"/>
<path fill="#000000" opacity="1.000000" stroke="none" 
	d="
M330.802643,289.179657 
	C329.627472,285.508057 330.765594,282.170013 331.945709,278.938171 
	C332.475372,277.487640 332.884369,276.122711 332.825562,274.621094 
	C332.761017,272.972443 332.922363,271.103180 330.764374,270.576508 
	C328.708832,270.074860 326.874481,270.355164 325.399902,272.197174 
	C324.597046,273.200104 324.155792,274.253326 324.339142,275.400269 
	C325.880615,285.043488 318.311249,288.080780 311.993713,290.894135 
	C307.036774,293.101532 301.579437,289.594543 298.033844,286.421509 
	C295.111328,283.806061 296.222137,278.460907 297.584534,274.570648 
	C298.379181,272.301666 298.760834,270.153534 298.910645,267.844513 
	C299.255859,262.522827 305.383179,259.305450 309.926239,262.027771 
	C311.389801,262.904755 311.520966,264.410950 310.737305,265.480652 
	C307.783997,269.511688 310.702606,274.730896 307.755219,278.859222 
	C306.792511,280.207672 308.968750,281.752258 310.264923,281.827850 
	C312.265320,281.944519 313.687744,280.413300 313.705750,278.351807 
	C313.739380,274.504578 315.173340,270.842438 315.471252,267.210632 
	C315.907654,261.890411 318.508026,260.676544 322.523254,261.786133 
	C326.977051,263.016937 331.143219,261.511017 335.439362,261.621765 
	C339.936035,261.737640 344.439270,261.712708 348.937195,261.624054 
	C351.717041,261.569275 354.367554,261.528809 355.189728,265.899231 
	C359.459656,260.543488 364.789032,261.650482 369.831604,261.667328 
	C377.854706,261.694061 382.662476,270.081085 380.174255,277.728088 
	C378.156219,283.930023 374.807465,287.766022 368.845520,290.137268 
	C361.175415,293.187958 350.019684,286.405060 349.837738,278.190887 
	C349.804535,276.691620 349.706451,275.181671 349.836365,273.693909 
	C350.008789,271.719879 349.587524,270.354492 347.274384,270.432281 
	C345.387207,270.495728 343.337463,270.567902 343.395050,273.184631 
	C343.479858,277.038025 342.042145,280.627045 341.592163,284.289093 
	C341.071381,288.526672 339.575958,289.817688 335.700317,289.390747 
	C334.216217,289.227203 332.705078,289.309265 330.802643,289.179657 
M360.699554,278.544525 
	C361.719940,282.560883 363.708954,283.461761 367.464874,281.222809 
	C371.193207,279.000366 369.520477,275.653229 369.795288,272.736664 
	C369.978668,270.790894 370.057312,268.526581 367.040161,268.442474 
	C364.401917,268.368927 363.102417,270.053223 362.491577,272.233887 
	C361.967865,274.103638 362.562317,276.271606 360.699554,278.544525 
z"/>
<path fill="#000000" opacity="1.000000" stroke="none" 
	d="
M311.709747,480.088379 
	C314.185974,481.193298 312.797607,484.154846 315.118195,485.487457 
	C315.811432,480.500275 319.276917,477.836182 323.077484,475.674286 
	C327.242218,473.305206 330.593597,474.528015 333.182526,478.578094 
	C334.214966,480.193207 334.770081,481.679962 333.222565,482.953705 
	C331.773865,484.146179 330.036652,483.871277 328.769867,482.410156 
	C327.905579,481.413269 327.253082,480.232758 327.033081,479.909332 
	C324.594513,479.819183 324.066345,480.787872 323.421631,481.491180 
	C323.017120,481.932434 322.855988,482.596802 322.157959,484.053894 
	C330.860626,483.851288 335.438843,488.346130 335.305847,496.224609 
	C335.221802,501.204956 332.048706,505.255859 326.616547,506.043854 
	C322.852203,506.589874 316.413666,500.254181 314.926666,494.610077 
	C313.104980,499.212524 311.185577,502.983368 306.667358,504.747375 
	C302.396606,506.414764 297.513489,505.530731 295.306641,501.442627 
	C293.323700,497.769257 292.318756,496.807495 289.983490,501.239197 
	C287.517853,505.918335 279.518250,507.375946 276.204926,503.082703 
	C271.644775,497.173828 266.323975,495.523834 259.519989,496.348907 
	C259.210114,496.386505 258.854797,496.265625 258.558075,496.134155 
	C258.267944,496.005646 258.025726,495.768982 257.535675,495.416809 
	C257.864990,491.504822 260.300171,490.254639 263.903046,490.623047 
	C269.012512,491.145508 272.353912,490.074341 271.839600,483.776672 
	C271.598724,480.827271 277.731964,474.182800 280.804626,474.214508 
	C284.733978,474.255005 288.434570,475.848297 290.156769,479.915497 
	C291.328491,482.682709 292.982239,484.404083 294.650604,480.765411 
	C298.577362,472.201294 306.509308,471.947449 311.709747,480.088379 
M304.394592,501.300659 
	C305.154938,500.684357 306.333984,500.214417 306.608673,499.428375 
	C308.629608,493.645569 308.303864,487.659241 306.877106,481.903564 
	C306.232422,479.302887 303.905792,478.898804 301.476013,481.190308 
	C296.001129,486.353607 296.996338,496.269806 304.394592,501.300659 
M284.164703,482.741730 
	C282.924744,481.731598 282.094971,480.121277 280.179047,479.983948 
	C279.791382,480.291565 279.339325,480.537476 279.039185,480.906830 
	C277.228577,483.135132 276.399170,496.867004 278.064545,499.122803 
	C279.011108,500.404907 280.004669,501.716827 282.149048,500.408325 
	C287.221466,497.313019 288.724670,488.048798 284.164703,482.741730 
M330.479645,496.188019 
	C330.677399,494.880524 329.492188,494.166840 329.153839,493.100098 
	C328.623291,491.427429 328.588531,489.056854 325.983246,489.687805 
	C323.776184,490.222351 322.481049,491.936432 322.330048,494.379730 
	C322.148224,497.320953 322.397583,499.982208 325.742676,501.203278 
	C327.826660,500.334381 328.999268,498.539185 330.479645,496.188019 
z"/>
<path fill="#000000" opacity="1.000000" stroke="none" 
	d="
M383.645386,484.762329 
	C383.942505,482.003235 382.516602,480.790710 380.572235,479.947418 
	C372.390625,485.719666 372.390625,485.719666 369.858917,479.798157 
	C368.196289,486.929443 364.622925,492.864014 364.242401,499.772919 
	C364.127014,501.868286 362.848022,503.236298 361.132355,503.898651 
	C358.723419,504.828705 359.162231,501.729645 357.836090,501.035767 
	C355.284576,501.300415 354.319855,503.867767 351.923309,504.519104 
	C346.494049,505.994720 342.001373,504.717743 338.813965,500.137512 
	C337.851959,498.755096 337.301300,497.222015 338.827362,496.231964 
	C340.232208,495.320557 342.185547,495.183685 343.056915,497.193024 
	C343.819794,498.952057 344.740051,500.384125 346.942047,501.231873 
	C348.779633,499.628387 350.716431,497.938293 353.001648,495.944153 
	C350.668610,494.233215 349.813141,491.385864 346.652771,491.330139 
	C345.156891,491.303772 344.054718,490.662109 344.036835,488.970581 
	C344.018097,487.200592 345.252441,486.748047 346.693848,486.689362 
	C349.465271,486.576538 350.037567,484.943359 349.544586,482.616638 
	C349.282410,481.379333 348.283264,480.630737 347.242767,480.137878 
	C345.852966,479.479553 345.059998,480.665558 344.392487,481.540802 
	C343.608307,482.569061 343.075867,483.789307 342.449341,484.899536 
	C338.341858,483.459106 337.110962,479.001160 340.601624,476.688538 
	C342.846497,475.201202 345.923370,473.367004 349.203705,474.479675 
	C353.083557,475.795776 356.851746,477.670776 356.197052,482.535645 
	C355.571594,487.182953 356.887543,491.021820 359.711487,495.390381 
	C360.819550,491.834778 362.427307,488.749847 362.583252,485.593170 
	C362.739868,482.423096 364.522003,480.016876 365.135468,477.124573 
	C365.501740,475.397552 367.029724,474.052673 369.071808,473.782806 
	C371.372711,473.478729 371.494934,475.636444 372.467987,476.812866 
	C376.633636,475.411987 380.149353,472.400055 385.287109,475.323273 
	C390.699158,478.402588 392.846466,486.470337 388.003326,490.502075 
	C385.794800,492.340546 384.367065,494.761322 382.266144,496.616791 
	C381.951538,496.894623 381.914032,497.486237 381.743347,497.946106 
	C383.238129,500.358795 385.653168,499.376007 387.658447,499.694153 
	C389.161865,499.932617 390.188934,500.478271 390.063568,502.210388 
	C389.958466,503.662170 389.005127,504.263123 387.732208,504.277863 
	C382.740082,504.335754 377.733521,504.545746 372.759216,504.248688 
	C369.507660,504.054504 369.211090,502.011108 371.745941,499.041382 
	C375.706787,494.401001 379.657349,489.751862 383.645386,484.762329 
z"/>
<path fill="#000000" opacity="1.000000" stroke="none" 
	d="
M271.766846,289.367310 
	C269.421082,289.176636 267.352173,289.937775 265.517487,288.420349 
	C265.787201,285.295074 267.894501,283.213409 269.739838,281.005676 
	C273.367004,276.666138 274.909821,271.207489 277.627228,266.377106 
	C280.097107,261.986786 283.377533,260.397583 288.283722,261.827881 
	C292.122345,262.946899 292.724152,266.062225 292.212006,269.359528 
	C291.396271,274.611359 295.399384,279.097046 294.326294,284.344849 
	C293.980225,286.037292 294.853821,288.420715 292.514099,289.003296 
	C289.984039,289.633301 286.356873,290.530701 284.930115,288.508270 
	C281.214325,283.241333 278.326538,285.295898 274.935883,288.456573 
	C274.298584,289.050629 273.126526,289.070923 271.766846,289.367310 
z"/>
<path fill="#000000" opacity="1.000000" stroke="none" 
	d="
M239.362000,497.522095 
	C239.302322,499.111237 239.275406,500.274384 239.233887,501.436951 
	C239.159515,503.519409 238.020218,504.341461 236.003281,504.288544 
	C234.242188,504.242310 233.030518,503.520599 233.013901,501.701874 
	C232.942551,493.894135 232.918030,486.085236 232.980133,478.277588 
	C232.997604,476.082886 234.688614,475.690033 236.494873,475.682220 
	C240.650040,475.664276 244.830124,475.929199 248.953781,475.560791 
	C253.645432,475.141602 254.809448,478.169037 256.694458,481.494934 
	C258.723419,485.074860 256.869507,487.636841 254.986877,489.225983 
	C252.029022,491.722687 248.859009,494.575653 244.374283,494.416992 
	C242.295074,494.343475 239.815323,493.920502 239.362000,497.522095 
M247.250168,487.950439 
	C249.258102,486.667816 250.852386,484.628601 249.255936,482.662231 
	C247.137878,480.053406 243.687256,481.223145 240.932541,481.737579 
	C238.607590,482.171814 239.009262,484.812561 239.488525,486.356476 
	C240.724503,490.337952 244.012115,488.222839 247.250168,487.950439 
z"/>
<path fill="#000000" opacity="1.000000" stroke="none" 
	d="
M398.142822,475.910034 
	C405.392822,472.447601 408.908112,474.759583 411.580872,482.529510 
	C413.528229,488.190674 413.795135,493.181793 411.515747,498.702362 
	C409.951538,502.490936 405.683380,506.628387 402.458038,506.221527 
	C398.257355,505.691681 392.994720,500.656830 392.858643,496.779785 
	C392.712891,492.626923 392.907745,488.462952 392.802887,484.307617 
	C392.705109,480.433441 396.367096,478.945007 398.142822,475.910034 
M405.862549,483.710297 
	C405.233978,481.525879 404.224396,479.370880 401.603912,479.836060 
	C399.806061,480.155182 398.482513,481.870789 398.431305,483.870026 
	C398.316498,488.349854 398.339539,492.835876 398.429138,497.316925 
	C398.466095,499.164337 399.844849,500.290131 401.310181,501.100433 
	C402.574554,501.799530 403.478638,500.833038 404.318146,500.003387 
	C408.087219,496.278442 408.895111,489.279358 405.862549,483.710297 
z"/>
<path fill="#000000" opacity="1.000000" stroke="none" 
	d="
M439.536072,481.173706 
	C438.145538,480.456512 437.097778,479.923431 436.208038,479.196808 
	C434.245392,477.594055 434.787476,475.981873 437.006531,475.867737 
	C442.634247,475.578217 448.306732,475.482910 453.921417,475.877350 
	C457.106079,476.101105 456.816284,478.864594 455.474701,480.739716 
	C451.231506,486.670380 448.003235,492.903259 447.089661,500.295715 
	C446.765808,502.916412 444.673309,504.986023 441.747101,504.065643 
	C438.884735,503.165344 440.371155,501.172211 441.103943,499.235107 
	C443.195953,493.705261 443.208984,487.390717 447.955017,483.004852 
	C445.272522,480.399719 442.418579,481.870270 439.536072,481.173706 
z"/>
<path fill="#000000" opacity="1.000000" stroke="none" 
	d="
M427.126129,475.740295 
	C430.116791,475.625732 430.427246,477.301453 430.406982,479.346161 
	C430.337646,486.344116 430.329254,493.342651 430.265991,500.340698 
	C430.249146,502.200745 430.281006,504.197540 427.590424,504.218811 
	C424.905884,504.240051 424.883331,502.265411 424.851837,500.389069 
	C424.801544,497.390289 424.690125,494.384644 424.829712,491.392426 
	C425.016754,487.383545 423.857300,484.859253 419.238373,485.337158 
	C418.279602,485.436340 417.228180,485.384735 416.100037,483.997528 
	C418.499603,479.926147 424.110443,479.600372 427.126129,475.740295 
z"/>
</svg>